<?xml version="1.0" encoding="UTF-8"?>
<svg width="725.33" height="364" version="1.1" viewBox="0 0 725.33 364" xmlns="http://www.w3.org/2000/svg" xmlns:cc="http://creativecommons.org/ns#" xmlns:dc="http://purl.org/dc/elements/1.1/" xmlns:rdf="http://www.w3.org/1999/02/22-rdf-syntax-ns#">
 <metadata>
  <rdf:RDF>
   <cc:Work rdf:about="">
    <dc:format>image/svg+xml</dc:format>
    <dc:type rdf:resource="http://purl.org/dc/dcmitype/StillImage"/>
    <dc:title/>
   </cc:Work>
  </rdf:RDF>
 </metadata>
 <g transform="translate(541.02 220.96)" stroke-width="1.3333">
  <path d="m-166.53 27.051v-5.3333h286.67v10.667h-286.67zm-57.333-21.333v-5.3333h-141.33v-10.667h-89.333v-10.667h36.558c41.346 0 40.776 0.08599 40.776-6.1427v-4.524l44.333-0.30753c38.291-0.26561 40.108-0.35983 13.333-0.69124l-31-0.38371v-9.2842h90.667v-12h133.33v-9.3333h-60.733c-76.878 0-71.934 1.975-71.934-28.735 0-29.111-5.8646-27.265 86.624-27.265h72.709v24h-132v9.3333h122.93l4.5333 4.5333c4.4913 4.4913 4.5333 4.6457 4.5333 16.667v12.133h76v-42.667h-66.667v-24h158.67v24h-65.333v42.667h117.33v64h-344zm144.33-48.983c-3.85-0.26933-10.15-0.26933-14 0-3.85 0.26933-0.7 0.48971 7 0.48971s10.85-0.22037 7-0.48971zm-348.33-27.387c0-54.702-10.075-48.963 85.957-48.963h72.709v24h-132v9.3333h132v22.667h-132v32h-26.667z" fill="#d0edf8"/>
  <path d="m-70.526 27.051v-5.3333h190.67v10.667h-190.67zm8-20.511c0-6.3141 2.3254-6.1168-72.333-6.1373l-66.333-0.0182v-10.667h-105.33v-10.614l56.667-0.71971 0.41383-5 0.41381-5h-10.935l0.38726-11 0.38725-11 132.67-0.69156v-9.3084l-60.333-0.0196c-75.627-0.02467-72.019 1.2853-72.737-26.411-0.8083-31.182-5.2882-29.666 86.404-29.24l72.667 0.33748v22.667l-131.33 0.6918v9.3082h122.62l8.7087 7.7746 0.43664 18.113 0.43664 18.113h75.793v-53.287l-66-0.71325v-22.667l158-0.68781v24.021h-65.333v53.333h117.33v53.333h-182.67zm-8.9307-39.148c-6.7452-0.24148-18.145-0.24253-25.333-0.0027-7.1881 0.2402-1.6693 0.43779 12.264 0.43907 13.933 0.0013 19.814-0.19525 13.069-0.43673zm-356.4-37.341c7e-3 -55.222-9.7556-49.649 86.995-49.659l71.667-7e-3v24h-132v9.3333h132v22.667h-132v32h-26.667l5e-3 -38.333zm498.66 21.667v-4.6667h49.333v9.3333h-49.333z" fill="#b4e3f4"/>
  <path d="m6.8074 27.051v-5.3333h113.33v10.667h-113.33zm61.333-21.333v-5.3333h-140v-10.667h-110.67v-10.667h18.558c22.056 0 22.776-0.19399 22.776-6.1427v-4.524h-58.588c-36.642 0-58.889-0.48724-59.392-1.3007-0.44214-0.71541-0.3948-5.8154 0.1052-11.333l0.90915-10.033h131.63v-9.2566l-124.22-0.74344-7.7795-8.7087v-37.496l7.7949-7.7949h150.87v21.308l-132.67 0.69156-0.8231 9.9237 125.43 0.74301 3.696 3.6948c3.6735 3.6723 3.696 3.8041 3.696 21.663v17.969l76.667 0.0054v-54.667h-66.667v-21.333h158.67v21.333h-65.333v54.667h117.33v9.3056l-118 0.72285 59 0.31911 59 0.32012v42.667h-52zm-113-38.331c-11.917-0.22097-31.417-0.22097-43.333 0-11.917 0.22099-2.1667 0.40179 21.667 0.40179 23.833 0 33.583-0.1808 21.667-0.40179zm-383-37.069c0-54.538-10.351-48.6 84.729-48.6h73.937v21.333h-132v10.667h132v22.667h-132v32h-26.667z" fill="#90d7ef"/>
  <path d="m90.807 27.051v-5.3333h29.333v10.667h-29.333zm-20-32v-5.3333h-121.33v-10.667h9.8909c12.813 0 14.109-0.56416 14.109-6.1427 0-2.4882 0.6-4.524 1.3333-4.524 0.85261 0 1.3333-11.778 1.3333-32.667v-32.667h-66.667v-21.333h158.67v21.333h-65.333v54.667h117.33v9.3056l-118 0.72285 118 0.63821v32h-49.333zm-498.67-64.733c0-54.538-10.351-48.6 84.729-48.6h73.937v21.333h-132v10.667h132v22.667h-132v32h-26.667zm169.33 26.733v-11.333h132v-9.2566l-124.22-0.74344-7.7795-8.7087v-37.496l7.7949-7.7949h150.87v21.308l-132.67 0.69156-0.8231 9.9237 125.43 0.74301 3.6872 3.6881c3.5326 3.5336 3.7078 4.3384 4.1797 19.203 1.0626 33.474 7.4457 31.109-83.988 31.109h-74.487z" fill="#69c9ea"/>
  <path d="m-427.86-69.682c0-54.538-10.351-48.6 84.729-48.6h73.937v21.333h-132v10.667h132v22.667h-132v32h-26.667zm169.33 26.733v-11.333h132v-9.2566l-124.22-0.74344-7.7795-8.7087v-37.496l7.7949-7.7949h150.87v21.308l-132.67 0.69156-0.8231 9.9237 125.43 0.74301 3.6872 3.6881c3.5326 3.5336 3.7078 4.3384 4.1797 19.203 1.0626 33.474 7.4457 31.109-83.988 31.109h-74.487zm234.67-21.333v-32.667h-66.667v-21.333h158.67v21.333h-65.333v65.333h-26.667z" fill="#859db7"/>
  <path d="m-427.29-33.397c-0.39736-1.0355-0.53723-18.746-0.3108-39.356l0.41167-37.473 3.6963-3.6948 3.6963-3.6948 150.61-0.7311v21.398h-132v10.667h132v21.333h-131.92l-0.74874 32.667-12.356 0.38367c-9.6732 0.30036-12.513-0.02507-13.078-1.4991zm168.77-9.5513v-11.333h132v-10.667h-61.421c-75.681 0-70.579 1.9278-70.579-26.667 0-28.808-6.7495-26.667 84.063-26.667h73.271v21.333h-132v10.667h60.043c77.359 0 71.957-2.0519 71.957 27.333 0 29.709 7.3563 27.333-84.624 27.333h-72.709zm234.67-21.285v-32.715h-66.667v-21.333h158.67v21.333h-66.948l0.47393 32.333 0.47392 32.333-26 0.76323z" fill="#426891"/>
  <path d="m-426.53-71.036c0-53.132-10.457-47.246 83.934-47.246h73.4v21.333h-133.33v10.667h133.33v21.333h-133.33v32h-24zm168 28.088v-10h132v-12h-60.733c-68.183 0-67.259 0.11933-70.005-9.044-3.1107-10.383-1.1459-35.686 3.1004-39.929l3.6962-3.6934 149.27-0.73162v21.398h-132v10.667h59.376c76.942 0 72.624-1.6367 72.624 27.528 0 16.99-0.11973 17.743-3.4518 21.703l-3.4519 4.1023h-150.43zm234.67-22v-32h-65.333v-21.333h157.33v21.333h-66.667v64h-25.333z" fill="#0c3a6f"/>
 </g>
</svg>
