<?xml version="1.0" encoding="utf-8"?>
<!-- Generator: Adobe Illustrator 24.1.3, SVG Export Plug-In . SVG Version: 6.00 Build 0)  -->
<svg version="1.1" id="Layer_1" xmlns="http://www.w3.org/2000/svg" xmlns:xlink="http://www.w3.org/1999/xlink" x="0px" y="0px"
	 viewBox="0 0 432 216" style="enable-background:new 0 0 432 216;" xml:space="preserve">
<style type="text/css">
	.st0{opacity:0.4;fill:url(#SVGID_1_);}
	.st1{fill:url(#SVGID_2_);}
	.st2{fill:url(#SVGID_3_);}
	.st3{opacity:0.8;fill:url(#SVGID_4_);}
	.st4{opacity:0.6;fill:url(#SVGID_5_);}
	.st5{opacity:0.8;fill:url(#SVGID_6_);}
	.st6{fill:url(#SVGID_7_);}
	.st7{fill:#003A70;}
</style>
<g>
	<linearGradient id="SVGID_1_" gradientUnits="userSpaceOnUse" x1="193.274" y1="100.909" x2="418.173" y2="100.909">
		<stop  offset="0" style="stop-color:#54C0E8;stop-opacity:0"/>
		<stop  offset="1" style="stop-color:#54C0E8"/>
	</linearGradient>
	<rect x="193.27" y="97.7" class="st0" width="224.9" height="6.41"/>
	<linearGradient id="SVGID_2_" gradientUnits="userSpaceOnUse" x1="82.461" y1="107.321" x2="418.173" y2="107.321">
		<stop  offset="0" style="stop-color:#54C0E8;stop-opacity:0"/>
		<stop  offset="1" style="stop-color:#54C0E8"/>
	</linearGradient>
	<rect x="82.46" y="104.12" class="st1" width="335.71" height="6.41"/>
	<linearGradient id="SVGID_3_" gradientUnits="userSpaceOnUse" x1="63.55" y1="113.733" x2="418.173" y2="113.733">
		<stop  offset="0" style="stop-color:#54C0E8;stop-opacity:0"/>
		<stop  offset="1" style="stop-color:#54C0E8"/>
	</linearGradient>
	<rect x="63.55" y="110.53" class="st2" width="354.62" height="6.41"/>
	<linearGradient id="SVGID_4_" gradientUnits="userSpaceOnUse" x1="58.762" y1="126.558" x2="418.173" y2="126.558">
		<stop  offset="0" style="stop-color:#54C0E8;stop-opacity:0"/>
		<stop  offset="1" style="stop-color:#54C0E8"/>
	</linearGradient>
	<rect x="58.76" y="123.35" class="st3" width="359.41" height="6.41"/>
	<linearGradient id="SVGID_5_" gradientUnits="userSpaceOnUse" x1="142.739" y1="132.97" x2="418.173" y2="132.97">
		<stop  offset="0" style="stop-color:#54C0E8;stop-opacity:0"/>
		<stop  offset="1" style="stop-color:#54C0E8"/>
	</linearGradient>
	<rect x="142.74" y="129.76" class="st4" width="275.43" height="6.41"/>
	<linearGradient id="SVGID_6_" gradientUnits="userSpaceOnUse" x1="205.085" y1="145.794" x2="418.173" y2="145.794">
		<stop  offset="0" style="stop-color:#54C0E8;stop-opacity:0"/>
		<stop  offset="1" style="stop-color:#54C0E8"/>
	</linearGradient>
	<rect x="205.09" y="142.59" class="st5" width="213.09" height="6.41"/>
	<linearGradient id="SVGID_7_" gradientUnits="userSpaceOnUse" x1="8" y1="120.145" x2="418.173" y2="120.145">
		<stop  offset="0" style="stop-color:#54C0E8;stop-opacity:0"/>
		<stop  offset="1" style="stop-color:#54C0E8"/>
	</linearGradient>
	<rect x="8" y="116.94" class="st6" width="410.17" height="6.41"/>
</g>
<path class="st7" d="M106.94,91.29h78.86V78.47h-78.86l0-6.41h78.86V59.24h-85.58c0,0-8.55,0-8.55,8.55v42.74h15.27V91.29z
	 M286.33,101.98V87.02c0-8.55-8.55-8.55-8.55-8.55h-70.31v-6.41h78.86V59.24h-85.58c0,0-8.55,0-8.55,8.55v14.96
	c0,0,0,8.55,8.55,8.55h70.31v6.41H192.2v12.82h85.58C286.33,110.52,286.33,101.98,286.33,101.98 M386.87,72.06V59.24h-94.13v12.82
	h39.43v38.46h15.27V72.06H386.87z"/>
</svg>
